<svg xmlns="http://www.w3.org/2000/svg" viewBox="0 0 72.31 72.32"><path d="M82.43,25.86H78.85V22.17a8.3,8.3,0,0,0-3.4-6.75,8.13,8.13,0,0,0-7.3-1.19L57.65,17.6a9.68,9.68,0,0,0-13.49-1.79,9.28,9.28,0,0,0-1.83,1.82l-10.58-3.4a8.12,8.12,0,0,0-7.29,1.19,8.31,8.31,0,0,0-3.41,6.75v3.69H17.57a3.73,3.73,0,0,0-3.73,3.72v9.61a3.74,3.74,0,0,0,3.61,3.73V82.43a3.73,3.73,0,0,0,3.72,3.73H78.83a3.73,3.73,0,0,0,3.72-3.73V42.92a3.74,3.74,0,0,0,3.61-3.73V29.58A3.73,3.73,0,0,0,82.43,25.86ZM55.88,42.92V83.51H44.12V42.92ZM16.5,29.58a1.07,1.07,0,0,1,1.07-1.07H37.81L31,40.27H17.57a1.07,1.07,0,0,1-1.07-1.08Zm3.6,13.34h9.34l-5.09,8.77a2.52,2.52,0,0,0-.07,2.45,2.57,2.57,0,0,0,2.08,1.36l2.76.17L30.63,58a2.52,2.52,0,0,0,2.11,1.15h.08a2.48,2.48,0,0,0,2.1-1.24l6.55-11V83.51H21.17a1.07,1.07,0,0,1-1.07-1.08ZM31.32,54.18a2.54,2.54,0,0,0-2-1.15l-2.62-.17L40.88,28.51h.74a9.72,9.72,0,0,0,5.17,4.25l-14,23.59Zm14.1-13.91,4.15-7a4.22,4.22,0,0,0,.87,0l4.15,7Zm-2.5-16.69A7.08,7.08,0,1,1,50,30.66,7.09,7.09,0,0,1,42.92,23.58ZM70.64,53a2.5,2.5,0,0,0-1.94,1.13l-1.45,2.19-14-23.59a9.72,9.72,0,0,0,5.17-4.25h.74L73.27,52.86ZM58.53,46.89l6.54,11a2.5,2.5,0,0,0,2.12,1.26h.07A2.49,2.49,0,0,0,69.36,58l1.52-2.3,2.76-.18a2.52,2.52,0,0,0,2-3.79l-5.1-8.78H79.9V82.43a1.07,1.07,0,0,1-1.07,1.08H58.53ZM69,16.76a5.47,5.47,0,0,1,4.92.8,5.65,5.65,0,0,1,2.32,4.61v3.69H59.46A9.58,9.58,0,0,0,59,20L69,16.76ZM62.19,28.51H82.43a1.07,1.07,0,0,1,1.07,1.07v9.61a1.07,1.07,0,0,1-1.07,1.08H69ZM30.94,16.76,41,20a9.55,9.55,0,0,0-.44,5.88H23.7V22.17A5.65,5.65,0,0,1,26,17.57h0A5.45,5.45,0,0,1,30.94,16.76Z" transform="translate(-13.84 -13.84)" fill="#00af9e"/></svg>