<svg xmlns="http://www.w3.org/2000/svg" viewBox="0 0 79.22 83.09"><path d="M29.84,14.33a4.21,4.21,0,0,0-4.21,4.21v.84a4.22,4.22,0,0,0,4.21,4.21h5.8a4.21,4.21,0,0,0,4.2-4.21v-.84a4.2,4.2,0,0,0-4.2-4.21Zm7,4.21v.84a1.21,1.21,0,0,1-1.2,1.21h-5.8a1.21,1.21,0,0,1-1.21-1.21v-.84a1.21,1.21,0,0,1,1.21-1.21h5.8A1.21,1.21,0,0,1,36.84,18.54Zm5-4.67a1.5,1.5,0,0,1,2.1-.32,7.7,7.7,0,0,1,2.76,5.71A7.58,7.58,0,0,1,44,24.93a1.47,1.47,0,0,1-.94.34,1.5,1.5,0,0,1-.95-2.67,4.58,4.58,0,0,0,1.6-3.34A4.82,4.82,0,0,0,42.12,16,1.49,1.49,0,0,1,41.8,13.87ZM21.61,19.26A4.61,4.61,0,0,0,23.2,22.6a1.5,1.5,0,0,1-.94,2.67,1.45,1.45,0,0,1-.94-.34,7.58,7.58,0,0,1-2.71-5.67,7.66,7.66,0,0,1,2.76-5.71A1.5,1.5,0,1,1,23.15,16,4.77,4.77,0,0,0,21.61,19.26ZM85.94,63.88A12.16,12.16,0,0,1,86,56.22l2.9-8.32a12.29,12.29,0,0,0-.08-8.27l-2.74-7.44a12.11,12.11,0,0,1-.21-7.71L88.81,15A5,5,0,0,0,84,8.46H19.79a9.41,9.41,0,0,0-9.4,9.39V37.94a1.5,1.5,0,0,0,3,0V27.18a9.35,9.35,0,0,0,6.4,2.54h25.9a9.33,9.33,0,0,0,6.39-2.54V80.92a7.63,7.63,0,0,1-7.63,7.62H21a7.64,7.64,0,0,1-7.63-7.62V43.6a1.5,1.5,0,0,0-3,0V80.92A10.64,10.64,0,0,0,21,91.54H44.45A10.64,10.64,0,0,0,55.08,80.92V17.85a9.32,9.32,0,0,0-2.53-6.39H84a2,2,0,0,1,2,2.65L83,23.61a15.09,15.09,0,0,0,.27,9.62L86,40.67a9.28,9.28,0,0,1,.06,6.24l-2.9,8.32a15.14,15.14,0,0,0-.11,9.57l2.77,8.6a2.06,2.06,0,0,1-2,2.68H59.29a1.5,1.5,0,0,0,0,3H83.91a5,5,0,0,0,4.8-6.6Zm-33.86-46v2.47a6.4,6.4,0,0,1-6.39,6.4H19.79a6.41,6.41,0,0,1-6.4-6.4V17.85a6.4,6.4,0,0,1,6.4-6.39H45.7A6.39,6.39,0,0,1,52.08,17.85Z" transform="translate(-10.39 -8.46)" fill="#00af9e"/></svg>