<svg xmlns="http://www.w3.org/2000/svg" viewBox="0 0 73.23 78.91"><path d="M56.37,54.08l.59.6h0L71.52,69.23l15.1-15.1L72.06,39.57l-2.12-2.12-2.2-2.2H64.28v3H66.5l1.32,1.32L62.39,45,57,50.43l-1.32-1.32v-8.9l2-2h.55v-3H56.36L52.64,39V50.35l2.2,2.2h0Zm26,.05L71.52,65,59.08,52.55l5.43-5.43,5.43-5.42ZM78.72,68,49.05,85.12V50.84l2.79-1.6-1.5-2.6-2.79,1.61L39.3,43.49l5.11-3a17.49,17.49,0,0,0,6.16,4l1-2.82A14.17,14.17,0,0,1,47.13,39l11.18-6.45c1.79,3.27,2,6.7.13,8.54a4.15,4.15,0,0,1-1.35.9l1.16,2.77a7.28,7.28,0,0,0,2.31-1.55c2.89-2.88,2.88-7.7.37-12.18l8-4.63,8.26,4.77-6.88,4,1.5,2.6,6.88-4V46h3V30.27L47.55,10.55,13.38,30.27V69.73L47.55,89.45,81.72,69.73V62.22h-3ZM27.65,40.23l7.14,4.12v5.9l-7.14-4.07Zm8.65,1.53-7.15-4.12,21-12.1a14.23,14.23,0,0,1,5.62,3.54c.31.31.6.63.88,1ZM59.24,28.52A18.27,18.27,0,0,0,57.85,27a17.79,17.79,0,0,0-4.49-3.3l5.45-3.15L66,24.64Zm-3.43-9.74-6.13,3.54-.22-.05c-3.16-.6-5.94.1-7.83,2a7.51,7.51,0,0,0-2,3.86L26.15,35.91,24.65,35h0l-6.76-3.9L47.55,14Zm-39.43,15,6.77,3.9h0l1.5.86v9.42l13.14,7.49V46.08l8.26,4.76V85.12L16.38,68Z" transform="translate(-13.38 -10.55)" fill="#00af9e"/></svg>