<svg xmlns="http://www.w3.org/2000/svg" viewBox="0 0 84.42 84.42"><path d="M87,21.86,62.2,8.31a4.33,4.33,0,0,0-2.05-.52,4.27,4.27,0,0,0-4,2.7,29.05,29.05,0,0,0-2.09,10.82v2a17.49,17.49,0,0,0,3,9.74,1.29,1.29,0,0,0,.8.57l1.48.37a5.45,5.45,0,0,1,4,4,5.51,5.51,0,0,1,.05,2.39l-1,5a4.45,4.45,0,0,0-.08.81,4.09,4.09,0,0,0,3.65,4.07l.44.05V68.87a12.18,12.18,0,0,1-3.59,8.66h0l-2.49.36a7.2,7.2,0,0,0,1,14.32H75.87a9.55,9.55,0,0,0,9.53-9.53v-1.5a22.55,22.55,0,0,0-.67-5.43,19.73,19.73,0,0,1-.57-5.57l1.17-29.25a1.35,1.35,0,0,1,.85-1.21,9.55,9.55,0,0,0,6-8.9v-.24A9.93,9.93,0,0,0,87,21.86ZM57.27,16.38,83,29.87A1,1,0,0,1,83.48,31a.93.93,0,0,1-.48.55,1,1,0,0,1-.74.06L56.81,23.15V21.31a27.08,27.08,0,0,1,.46-4.93ZM69.06,68.87V50.61l1.56.18a4.08,4.08,0,0,1,3.63,4.26l-.88,17.63a4.1,4.1,0,0,1-3.5,3.84l-3.2.45a14.83,14.83,0,0,0,2.39-8.1ZM89.48,30.82a6.83,6.83,0,0,1-4.31,6.37,4.08,4.08,0,0,0-2.56,3.63L81.44,70.07a22.2,22.2,0,0,0,.65,6.34,19.72,19.72,0,0,1,.59,4.77v1.5a6.82,6.82,0,0,1-6.81,6.8H61.28a4.47,4.47,0,0,1-.63-8.89l9.61-1.38a6.82,6.82,0,0,0,5.83-6.4L77,55.19a6.82,6.82,0,0,0-6-7.11l-4.73-.52A1.37,1.37,0,0,1,65,46.19a2.28,2.28,0,0,1,0-.27l1-5.05a8.15,8.15,0,0,0-6-9.52l-1-.24a14.8,14.8,0,0,1-1.91-5l24.29,8.1a3.69,3.69,0,0,0,2.88-6.77L58,13.66c.22-.73.46-1.45.75-2.16a1.58,1.58,0,0,1,2.19-.79L85.73,24.25a7.21,7.21,0,0,1,3.75,6.33ZM50,37.75H9.15a1.36,1.36,0,0,0-1.36,1.36V60.89a1.36,1.36,0,0,0,1.36,1.36H50a1.36,1.36,0,0,0,1.36-1.36V39.11A1.36,1.36,0,0,0,50,37.75ZM48.64,59.53H10.52V40.47H48.64ZM13.24,43.19H16V56.81H13.24Zm4.08,0h1.36V56.81H17.32Zm2.73,0h1.36V56.81H20.05Zm2.72,0h1.36V56.81H22.77Zm2.72,0h4.09V56.81H25.49Z" transform="translate(-7.79 -7.79)" fill="#00af9e"/></svg>