<svg xmlns="http://www.w3.org/2000/svg" viewBox="0 0 93.41 68.59"><path d="M92.32,18.62H20.81A4.39,4.39,0,0,0,16.43,23v4.36L5.82,16.16a1.47,1.47,0,0,0-1.6-.35,1.44,1.44,0,0,0-.92,1.35V47.81a1.45,1.45,0,0,0,.53,1.13l12.6,10.31V75.54a4.39,4.39,0,0,0,4.38,4.38H26L29.14,83a4.36,4.36,0,0,0,3.1,1.29H54.38a1.58,1.58,0,0,0,.38,0,4.6,4.6,0,0,0,.64,0h3.24a3.87,3.87,0,0,0,3.63-2.43,4,4,0,0,0,.27-2H92.32a4.39,4.39,0,0,0,4.38-4.38V23A4.39,4.39,0,0,0,92.32,18.62ZM44.16,21.54H50V32l-2.11-1.41a1.45,1.45,0,0,0-1.62,0L44.16,32ZM19.35,23a1.46,1.46,0,0,1,1.46-1.46H41.24V34.67a1.46,1.46,0,0,0,2.27,1.22l3.57-2.38,3.57,2.38a1.47,1.47,0,0,0,.81.24,1.41,1.41,0,0,0,.69-.17,1.47,1.47,0,0,0,.77-1.29V21.54H74.81V77h-14l-11-11-1.27-4.44,2.49,2.48a5.19,5.19,0,0,0,7.55-7.12L51,48.38A7.29,7.29,0,0,0,46.75,46l-15-2.5L19.35,30.45Zm0,52.54V62.09a4.27,4.27,0,0,1,.44,1.19L22,74.09A7.21,7.21,0,0,0,23.24,77H20.81A1.46,1.46,0,0,1,19.35,75.54Zm40.22,5.22a1,1,0,0,1-.93.62H55.4a1,1,0,0,1-.71-.3l-9.5-9.49a1.41,1.41,0,0,0-1-.43,1.43,1.43,0,0,0-1,.43,1.45,1.45,0,0,0,0,2.06l7.73,7.73H47.49l-8.33-8.33a1.46,1.46,0,1,0-2.06,2.06l6.27,6.27H40.2l-8.33-8.33a1.46,1.46,0,0,0-2.07,2.06l6.27,6.27H32.24a1.48,1.48,0,0,1-1-.43L26,75.76a4.43,4.43,0,0,1-1.2-2.24L22.65,62.71a7.35,7.35,0,0,0-2.53-4.22L6.22,47.12V20.82L30,45.9a1.4,1.4,0,0,0,.82.43l15.48,2.58a4.45,4.45,0,0,1,2.55,1.41l7.61,8.56a2.28,2.28,0,0,1-.34,3.33,2.27,2.27,0,0,1-3-.21L50,58.85a2.67,2.67,0,0,0-4.46,2.63l1.63,5.7a1.48,1.48,0,0,0,.37.64L59.35,79.66a1,1,0,0,1,.22,1.1Zm34.21-5.22A1.46,1.46,0,0,1,92.32,77H77.73V21.54H92.32A1.46,1.46,0,0,1,93.78,23Z" transform="translate(-3.3 -15.7)" fill="#00af9e"/></svg>