<svg xmlns="http://www.w3.org/2000/svg" viewBox="0 0 99.23 99.19"><path d="M51.41,73.5v2.83H48.59V73.5Zm-.56,25.81a1.24,1.24,0,0,0,.28-.28L56,92.58l-2.26-1.69L51.41,94V80.15H48.59V94l-2.3-3.06L44,92.58,48.87,99A1.41,1.41,0,0,0,50.85,99.31Zm18.78-31.7-2-2-2,2,2,2ZM30.37,32.35l2,2,2-2-2-2Zm21-5.89V23.64H48.59v2.82ZM48.86.94,44,7.38l2.26,1.7L48.59,6V19.81h2.82V6l2.3,3.06L56,7.38,51.13.94a1.48,1.48,0,0,0-1-.53,1.46,1.46,0,0,0-1.08.33Zm33.23,19-.54,3.78,2.79.41,1.14-8a1.43,1.43,0,0,0-.4-1.2h0a1.43,1.43,0,0,0-1.2-.4l-8,1.14.4,2.8,3.79-.54-9.76,9.75,2,2Zm2,65.59a1.41,1.41,0,0,0,1.41-1.41,1.49,1.49,0,0,0,0-.21l-1.14-8-2.79.4.54,3.78-9.76-9.75-2,2,9.76,9.75-3.78-.54-.4,2.79,8,1.14ZM99.33,49.14a1.28,1.28,0,0,0-.28-.29L92.6,44l-1.69,2.26,3,2.29H80.17v2.82H94l-3,2.3L92.6,56l6.45-4.84a1.37,1.37,0,0,0,.55-.93A1.39,1.39,0,0,0,99.33,49.14Zm-25.81-.57v2.82h2.82V48.57ZM17.91,80.07l.54-3.78-2.79-.4-1.15,8a1.41,1.41,0,0,0,1.2,1.59,1.34,1.34,0,0,0,.4,0l8-1.14-.4-2.79-3.79.54,9.76-9.76-2-2ZM15.07,14.76a1.38,1.38,0,0,0-.56.92,1.48,1.48,0,0,0,0,.42l1.14,8,2.8-.4-.54-3.79,9.75,9.76,2-2L19.91,17.9l3.79.54.39-2.8-8-1.15A1.4,1.4,0,0,0,15.07,14.76ZM6,51.39h13.8V48.57H6l3.06-2.29L7.4,44,1,48.85a1.42,1.42,0,0,0-.28,2,1.24,1.24,0,0,0,.28.28L7.4,56l1.69-2.26ZM30.37,67.61l2,2,2-2-2-2ZM67.63,30.35l-2,2,2,2,2-2Zm-41.15,21V48.57H23.66v2.82ZM67.35,59.5l-16.65,10a1.33,1.33,0,0,1-.24.1l-.09,0a1.51,1.51,0,0,1-.76,0l-.09,0-.19-.07-16.68-10A1.41,1.41,0,0,1,32,58.29V41.67a1.34,1.34,0,0,1,0-.35l.06-.16a1.56,1.56,0,0,0,.07-.17l.12-.16.1-.14.16-.12.14-.11,16.62-10a1.41,1.41,0,0,1,1.45,0l16.61,10,.16.14.12.08.14.18.08.11.1.24,0,.11a1.47,1.47,0,0,1,0,.36V58.29A1.41,1.41,0,0,1,67.35,59.5ZM36.12,41.67,41.69,45l13.88-8.32L50,33.34ZM48.59,52.44l-13.8-8.27V57.49l13.8,8.28ZM63.88,41.67l-5.57-3.34L44.43,46.66,50,50Zm1.33,2.5-13.68,8.2-.12.07V65.77l13.68-8.2.12-.08Z" transform="translate(-0.39 -0.4)" fill="#00af9e"/></svg>