<?xml version="1.0" encoding="utf-8"?>
<!-- Generator: Adobe Illustrator 27.5.0, SVG Export Plug-In . SVG Version: 6.00 Build 0)  -->
<svg version="1.1" id="a" xmlns="http://www.w3.org/2000/svg" xmlns:xlink="http://www.w3.org/1999/xlink" x="0px" y="0px"
	 viewBox="0 0 493.1 374.7" style="enable-background:new 0 0 493.1 374.7;" xml:space="preserve">
<style type="text/css">
	.st0{fill:#FFFFFF;}
	.st1{fill:#623CEA;}
</style>
<path class="st0" d="M272.7,329.2l-0.2,0.1c0-0.1,0-0.1,0-0.2l0.1-0.1L272.7,329.2L272.7,329.2z"/>
<path class="st1" d="M245.1,244l55.9,80c-16.3,12.6-46.6,34.9-65.8,41.3c-23.7,8-49.1,11.1-74.4,8.6c-48.1-4.8-91.4-28.3-121.6-66.1
	C9.8,271.2-3.9,224.2,1,177.6c5-47.4,28.1-90,65.1-120l17.8-14.4l34.9-27.7c27.4-22.3,64.6-19.1,88.4,1.6c10.4,9,83,114.6,83,114.6
	l-1.7,1.4l-0.9,0.7c-12.5,10.5-28.6,16.8-46.2,16.7h-0.9c-24.3-0.5-45.6-13.1-58.1-32.1c-3.9-5.9-6.9-12.5-8.9-19.4L138.5,127
	l-10,7.6c-34.2,27.7-39.3,78.2-11.1,112.2c27.9,33.6,79.5,38.5,113.4,10.9L245.1,244L245.1,244z"/>
<path class="st1" d="M492.4,185.7c-3.8,39.2-23.8,75-54.4,99.8L424,296.9l-29.3,24.7c-22.1,18-52,15.6-71.4-0.6
	c-8.9-7.5-65.2-86.6-65.2-86.6l2-1.7c10-7.9,22.6-12.6,36.4-12.5c2.2,0,4.4,0.1,6.5,0.4c15.7,1.8,29.4,9.9,38.7,21.7
	c4.5,5.7,3.4,4.2,9.3,11.9l25.2-22.6l4.9-3.9l6.6-5.4c25.5-20.6,31.8-56.8,15.4-84.1c-0.5-0.8-1-1.6-1.5-2.4c-1-1.5-2.2-3.1-3.3-4.6
	c-0.8-1-1.6-2-2.5-2.9c-0.9-0.9-1.7-1.8-2.6-2.7c-0.9-0.9-1.7-1.7-2.7-2.5c-1-0.9-2-1.7-3.1-2.6c-0.9-0.7-1.8-1.4-2.7-2
	c-1.5-1-3-2-4.5-2.9c-1.3-0.7-2.6-1.4-4-2.1c-0.2-0.1-0.4-0.2-0.6-0.4c-21.9-10.5-48.8-8.2-68.9,8.1l-1.2,1L259.3,56
	c12.4-9.9,22.2-15.2,36.8-20.7c21.2-8.1,44.2-11.2,67.2-8.7c38.4,4.2,72.9,23,97.2,53S496.2,147.3,492.4,185.7L492.4,185.7z"/>
</svg>
