<svg xmlns="http://www.w3.org/2000/svg" viewBox="0 0 112.85 97.42"><path d="M1.2,67.29C1.2,62.62,5,59,10.09,59a9.88,9.88,0,0,1,5.5,1.43c.39.24.46.59.21,1.08l-1.46,2.85a.69.69,0,0,1-1,.25,5.43,5.43,0,0,0-2.58-.63c-2.37,0-3.91,1.4-3.91,3.35s1.54,3.34,3.91,3.34A5.37,5.37,0,0,0,13.43,70a.61.61,0,0,1,.94.28l1.47,2.86a.64.64,0,0,1-.21.94,9.5,9.5,0,0,1-5.54,1.57C5,75.62,1.2,72,1.2,67.29Z" transform="translate(-1.07 -1.29)" fill="#355098"/><path d="M34.52,68.09c-.07.42-.28.66-.7.66H23.37a4.23,4.23,0,0,0,4,2.27,5.46,5.46,0,0,0,3.42-1.12.59.59,0,0,1,1,.21l1.5,2.72a.69.69,0,0,1-.17,1,10.14,10.14,0,0,1-6.35,1.81c-5.12,0-9-3.66-9-8.33A8.23,8.23,0,0,1,26.33,59c5.05,0,8.23,3.69,8.23,8.5A3.55,3.55,0,0,1,34.52,68.09ZM23.33,65.44h6l0-.14a2.74,2.74,0,0,0-2.75-2.06A3,3,0,0,0,23.33,65.44Z" transform="translate(-1.07 -1.29)" fill="#355098"/><path d="M54.6,66.45v8.16a.62.62,0,0,1-.7.69H49.79a.63.63,0,0,1-.7-.69V67.25c0-2-1.18-3.34-2.89-3.34a3,3,0,0,0-3.07,3.34v7.36a.62.62,0,0,1-.7.69H38.32a.63.63,0,0,1-.7-.69V60a.63.63,0,0,1,.7-.7H40.8a.64.64,0,0,1,.69.66l.18,2C42.61,60.21,44.6,59,47.52,59,51.88,59,54.6,61.85,54.6,66.45Z" transform="translate(-1.07 -1.29)" fill="#355098"/><path d="M59.86,69.06V63.91H57.32a.63.63,0,0,1-.7-.7V60a.62.62,0,0,1,.7-.7H60V54.46a.63.63,0,0,1,.69-.7h3.94a.63.63,0,0,1,.7.7v4.81h4.92A.62.62,0,0,1,71,60v3.24a.63.63,0,0,1-.69.7H65.37V68.4c0,1.68,1.15,2.23,2.48,2.23a4.85,4.85,0,0,0,1.77-.38.61.61,0,0,1,.94.31l1.29,2.83c.18.42.07.69-.34,1a9,9,0,0,1-5,1.22C62.3,75.62,59.86,73.28,59.86,69.06Z" transform="translate(-1.07 -1.29)" fill="#355098"/><path d="M85.55,59.76l-.31,4c0,.48-.35.66-.8.55a3.56,3.56,0,0,0-.94-.1c-2.17,0-3.73,1.18-3.73,3.42v7a.63.63,0,0,1-.7.69H75a.62.62,0,0,1-.7-.69V60a.62.62,0,0,1,.7-.7h3.17a.64.64,0,0,1,.69.66l.18,2.3c.52-1.91,2.54-3.27,5.16-3.27a6.78,6.78,0,0,1,.8,0A.62.62,0,0,1,85.55,59.76Z" transform="translate(-1.07 -1.29)" fill="#355098"/><path d="M104.51,60V74.61a.62.62,0,0,1-.69.69H100.3a.65.65,0,0,1-.73-.66l-.14-1.22a6.34,6.34,0,0,1-4.81,2.2C90.15,75.62,87,72,87,67.29S90.33,59,94.79,59a7.14,7.14,0,0,1,4.39,1.46l.11-.52a.67.67,0,0,1,.73-.63h3.8A.62.62,0,0,1,104.51,60Zm-5.26,7.32a3.19,3.19,0,0,0-3.38-3.35,3.35,3.35,0,1,0,0,6.69A3.19,3.19,0,0,0,99.25,67.29Z" transform="translate(-1.07 -1.29)" fill="#355098"/><path d="M108.42,74.61V51.11a.62.62,0,0,1,.7-.69h4.11a.63.63,0,0,1,.7.69v23.5a.63.63,0,0,1-.7.69h-4.11A.62.62,0,0,1,108.42,74.61Z" transform="translate(-1.07 -1.29)" fill="#355098"/><path d="M19,89.54V97.7a.63.63,0,0,1-.7.69H14.16a.62.62,0,0,1-.69-.69V90.34c0-2-1.19-3.34-2.9-3.34a3,3,0,0,0-3.06,3.34V97.7a.63.63,0,0,1-.7.69H2.7A.62.62,0,0,1,2,97.7V83.06a.62.62,0,0,1,.7-.7H5.17a.65.65,0,0,1,.7.66L6,85C7,83.3,9,82.05,11.9,82.05,16.26,82.05,19,84.94,19,89.54Z" transform="translate(-1.07 -1.29)" fill="#355098"/><path d="M21.87,90.38c0-4.74,3.9-8.33,8.82-8.33a8.34,8.34,0,1,1,0,16.66C25.77,98.71,21.87,95.12,21.87,90.38Zm12.06,0a3.26,3.26,0,1,0-3.24,3.34A3.24,3.24,0,0,0,33.93,90.38Z" transform="translate(-1.07 -1.29)" fill="#355098"/><path d="M54.65,82.85l-.32,4c0,.48-.35.66-.8.55a3.51,3.51,0,0,0-.94-.1c-2.16,0-4.51,1.19-4.51,3.42v7a.62.62,0,0,1-.7.69H43.27a.63.63,0,0,1-.7-.69V83.06a.63.63,0,0,1,.7-.7h3.17a.65.65,0,0,1,.7.66l.17,2.3c.53-1.91,3.33-3.27,5.94-3.27a6.78,6.78,0,0,1,.8,0A.63.63,0,0,1,54.65,82.85Z" transform="translate(-1.07 -1.29)" fill="#355098"/><path d="M59.78,92.16V87H57.24a.63.63,0,0,1-.7-.7V83.06a.62.62,0,0,1,.7-.7H60V77.55a.63.63,0,0,1,.7-.7h3.94a.63.63,0,0,1,.7.7v4.81H70.2a.62.62,0,0,1,.7.7V86.3a.63.63,0,0,1-.7.7H65.29v4.49c0,1.68,1.15,2.23,2.47,2.23a4.91,4.91,0,0,0,1.78-.38.61.61,0,0,1,.94.31l1.29,2.83c.18.42.07.69-.35,1a9,9,0,0,1-5,1.22C62.22,98.71,59.78,96.37,59.78,92.16Z" transform="translate(-1.07 -1.29)" fill="#355098"/><path d="M89.86,91.18c-.07.42-.28.66-.69.66H78.71a4.23,4.23,0,0,0,4,2.27A5.44,5.44,0,0,0,86.17,93a.59.59,0,0,1,1,.21l1.5,2.72a.69.69,0,0,1-.17,1,10.12,10.12,0,0,1-6.35,1.81c-5.12,0-9-3.66-9-8.33a8.22,8.22,0,0,1,8.5-8.33c5.06,0,8.23,3.69,8.23,8.5A3.5,3.5,0,0,1,89.86,91.18ZM78.67,88.53h6l0-.14a2.74,2.74,0,0,0-2.75-2.06A3,3,0,0,0,78.67,88.53Z" transform="translate(-1.07 -1.29)" fill="#355098"/><path d="M29.58,29.66,36.08,39c-1.89,1.47-5.42,4.05-7.65,4.8a20.66,20.66,0,0,1-22.8-6.68A20.77,20.77,0,0,1,8.76,8L10.82,6.3l4.06-3.22a8,8,0,0,1,10.28.18c1.21,1,9.65,13.33,9.65,13.33l-.19.15-.1.09a8.3,8.3,0,0,1-5.38,1.94H29A8.26,8.26,0,0,1,22.27,15a8.61,8.61,0,0,1-1-2.26l-4.05,3.28L16,16.94a9.24,9.24,0,0,0-1.29,13,9.54,9.54,0,0,0,13.19,1.28Z" transform="translate(-1.07 -1.29)" fill="#355098"/><path d="M58.34,22.89A17.22,17.22,0,0,1,52,34.5l-1.64,1.32L47,38.7a6.5,6.5,0,0,1-8.3-.08c-1-.86-7.59-10.07-7.59-10.07l.23-.2a6.73,6.73,0,0,1,4.23-1.45,6.33,6.33,0,0,1,.76.05,6.69,6.69,0,0,1,4.5,2.52l1.08,1.38,2.93-2.63.57-.46.77-.62a7.62,7.62,0,0,0,1.78-9.79l-.17-.27a6.55,6.55,0,0,0-.39-.53c-.09-.12-.18-.23-.28-.34l-.3-.32-.31-.29-.36-.3-.32-.23-.52-.34-.46-.24-.07,0a7.54,7.54,0,0,0-8,.94l-.14.11L31.23,7.81A14.56,14.56,0,0,1,35.52,5.4a16.9,16.9,0,0,1,19.12,5.16A16.87,16.87,0,0,1,58.34,22.89Z" transform="translate(-1.07 -1.29)" fill="#355098"/></svg>