<svg xmlns="http://www.w3.org/2000/svg" viewBox="0 0 90.03 36"><path d="M12.48,64.38a3.67,3.67,0,0,1,3.86-3.61,4.23,4.23,0,0,1,2.39.62c.17.1.2.25.09.47l-.63,1.24a.31.31,0,0,1-.44.1,2.4,2.4,0,0,0-1.12-.27,1.47,1.47,0,1,0,0,2.91,2.42,2.42,0,0,0,1.17-.29.26.26,0,0,1,.4.12l.64,1.24a.28.28,0,0,1-.09.41,4.09,4.09,0,0,1-2.41.68A3.68,3.68,0,0,1,12.48,64.38Z" transform="translate(-12.48 -32)" fill="#355098"/><path d="M27,64.73c0,.18-.12.29-.3.29H22.11a1.84,1.84,0,0,0,1.75,1,2.39,2.39,0,0,0,1.49-.48.26.26,0,0,1,.42.09l.65,1.18a.3.3,0,0,1-.07.42,4.39,4.39,0,0,1-2.76.79,3.7,3.7,0,0,1-3.89-3.62,3.57,3.57,0,0,1,3.69-3.61A3.47,3.47,0,0,1,27,64.46,1.32,1.32,0,0,1,27,64.73Zm-4.86-1.15H24.7l0-.06a1.18,1.18,0,0,0-1.19-.89A1.32,1.32,0,0,0,22.09,63.58Z" transform="translate(-12.48 -32)" fill="#355098"/><path d="M35.67,64v3.54a.27.27,0,0,1-.3.3H33.58a.27.27,0,0,1-.3-.3V64.37a1.3,1.3,0,1,0-2.59,0v3.19a.27.27,0,0,1-.3.3H28.6a.27.27,0,0,1-.3-.3V61.2a.27.27,0,0,1,.3-.3h1.08a.29.29,0,0,1,.3.29l.07.85a2.77,2.77,0,0,1,2.55-1.27A2.94,2.94,0,0,1,35.67,64Z" transform="translate(-12.48 -32)" fill="#355098"/><path d="M38,65.15V62.91h-1.1a.27.27,0,0,1-.3-.3V61.2a.27.27,0,0,1,.3-.3H38V58.81a.27.27,0,0,1,.3-.3H40a.28.28,0,0,1,.31.3V60.9h2.13a.27.27,0,0,1,.3.3v1.41a.27.27,0,0,1-.3.3H40.35v2c0,.72.5,1,1.07,1a2.14,2.14,0,0,0,.77-.17.26.26,0,0,1,.41.14L43.16,67c.08.18,0,.3-.15.44a3.84,3.84,0,0,1-2.16.53A2.61,2.61,0,0,1,38,65.15Z" transform="translate(-12.48 -32)" fill="#355098"/><path d="M49.11,61.11,49,62.85c0,.22-.15.29-.35.25a1.63,1.63,0,0,0-2,1.43v3a.27.27,0,0,1-.31.3H44.51a.27.27,0,0,1-.31-.3V61.2a.28.28,0,0,1,.31-.3h1.37a.29.29,0,0,1,.31.29l.07,1a2.19,2.19,0,0,1,2.24-1.42h.35A.27.27,0,0,1,49.11,61.11Z" transform="translate(-12.48 -32)" fill="#355098"/><path d="M57.34,61.2v6.36a.27.27,0,0,1-.3.3H55.51a.29.29,0,0,1-.32-.28l-.06-.53A2.78,2.78,0,0,1,53,68a3.39,3.39,0,0,1-3.33-3.62,3.44,3.44,0,0,1,3.41-3.61A3.1,3.1,0,0,1,55,61.4l0-.23a.29.29,0,0,1,.32-.27H57A.27.27,0,0,1,57.34,61.2Zm-2.28,3.18a1.39,1.39,0,0,0-1.47-1.45,1.46,1.46,0,1,0,0,2.91A1.39,1.39,0,0,0,55.06,64.38Z" transform="translate(-12.48 -32)" fill="#355098"/><path d="M59,67.56V57.36a.27.27,0,0,1,.3-.3h1.79a.27.27,0,0,1,.3.3v10.2a.27.27,0,0,1-.3.3H59.34A.27.27,0,0,1,59,67.56Z" transform="translate(-12.48 -32)" fill="#355098"/><path d="M72.4,64v3.54a.27.27,0,0,1-.3.3H70.31a.27.27,0,0,1-.3-.3V64.37a1.3,1.3,0,0,0-1.26-1.46,1.32,1.32,0,0,0-1.33,1.46v3.19a.27.27,0,0,1-.3.3H65.33a.27.27,0,0,1-.3-.3V61.2a.27.27,0,0,1,.3-.3h1.08a.29.29,0,0,1,.3.29l.07.85a2.77,2.77,0,0,1,2.55-1.27A2.94,2.94,0,0,1,72.4,64Z" transform="translate(-12.48 -32)" fill="#355098"/><path d="M73.66,64.38A3.83,3.83,0,1,1,77.48,68,3.66,3.66,0,0,1,73.66,64.38Zm5.23,0a1.42,1.42,0,1,0-1.41,1.46A1.4,1.4,0,0,0,78.89,64.38Z" transform="translate(-12.48 -32)" fill="#355098"/><path d="M87.55,61.11l-.14,1.74c0,.22-.15.29-.35.25a1.63,1.63,0,0,0-2,1.43v3a.27.27,0,0,1-.31.3H83a.27.27,0,0,1-.3-.3V61.2a.27.27,0,0,1,.3-.3h1.38a.29.29,0,0,1,.3.29l.07,1a2.19,2.19,0,0,1,2.24-1.42h.35A.27.27,0,0,1,87.55,61.11Z" transform="translate(-12.48 -32)" fill="#355098"/><path d="M89.44,65.15V62.91h-1.1a.27.27,0,0,1-.31-.3V61.2a.28.28,0,0,1,.31-.3h1.18V58.81a.27.27,0,0,1,.3-.3h1.71a.27.27,0,0,1,.3.3V60.9H94a.27.27,0,0,1,.3.3v1.41a.27.27,0,0,1-.3.3H91.83v2c0,.72.5,1,1.08,1a2.25,2.25,0,0,0,.77-.17.27.27,0,0,1,.41.14L94.65,67c.07.18,0,.3-.15.44a3.92,3.92,0,0,1-2.17.53A2.6,2.6,0,0,1,89.44,65.15Z" transform="translate(-12.48 -32)" fill="#355098"/><path d="M102.5,64.73c0,.18-.12.29-.3.29H97.66a1.84,1.84,0,0,0,1.75,1,2.39,2.39,0,0,0,1.49-.48.26.26,0,0,1,.42.09l.65,1.18a.3.3,0,0,1-.07.42,4.39,4.39,0,0,1-2.76.79,3.7,3.7,0,0,1-3.89-3.62A3.57,3.57,0,0,1,99,60.77a3.47,3.47,0,0,1,3.57,3.69A1.32,1.32,0,0,1,102.5,64.73Zm-4.86-1.15h2.61l0-.06A1.18,1.18,0,0,0,99,62.63,1.33,1.33,0,0,0,97.64,63.58Z" transform="translate(-12.48 -32)" fill="#355098"/><path d="M57.41,46.28,60.68,51a17.75,17.75,0,0,1-3.85,2.42A10.41,10.41,0,0,1,45.35,50a10.47,10.47,0,0,1-2.23-7.62,10.34,10.34,0,0,1,3.81-7l1-.85,2-1.62a4,4,0,0,1,5.17.09c.61.53,4.86,6.71,4.86,6.71l-.1.08,0,0a4.22,4.22,0,0,1-2.71,1h0a4.17,4.17,0,0,1-3.4-1.88,4.24,4.24,0,0,1-.53-1.14l-2,1.65-.59.45a4.65,4.65,0,0,0-.65,6.56,4.8,4.8,0,0,0,6.64.64Z" transform="translate(-12.48 -32)" fill="#355098"/><path d="M71.88,42.87a8.65,8.65,0,0,1-3.18,5.84l-.83.67-1.71,1.44a3.27,3.27,0,0,1-4.18,0c-.52-.44-3.82-5.07-3.82-5.07l.12-.1a3.29,3.29,0,0,1,2.13-.73,2.42,2.42,0,0,1,.38,0,3.37,3.37,0,0,1,2.26,1.27l.55.69,1.47-1.32.29-.23.38-.31a3.84,3.84,0,0,0,.9-4.93l-.09-.14a2.48,2.48,0,0,0-.19-.26c0-.06-.09-.12-.14-.17a1.21,1.21,0,0,0-.16-.16l-.15-.15-.18-.15-.16-.12-.26-.17-.23-.12a.05.05,0,0,1,0,0,3.8,3.8,0,0,0-4,.47l-.07.06-2.7-3.87a7,7,0,0,1,2.15-1.21,8.52,8.52,0,0,1,11.49,8.8Z" transform="translate(-12.48 -32)" fill="#355098"/></svg>