<svg xmlns="http://www.w3.org/2000/svg" viewBox="0 0 80.81 69.75"><path d="M17.19,62.38a6.06,6.06,0,0,1,6.36-6,7.07,7.07,0,0,1,3.94,1c.28.17.33.42.15.77l-1,2a.5.5,0,0,1-.73.17A3.88,3.88,0,0,0,24,60c-1.69,0-2.79,1-2.79,2.4s1.1,2.39,2.79,2.39A3.9,3.9,0,0,0,26,64.3a.44.44,0,0,1,.67.2l1.05,2a.46.46,0,0,1-.15.67,6.84,6.84,0,0,1-4,1.12A6.06,6.06,0,0,1,17.19,62.38Z" transform="translate(-17.1 -15.12)" fill="#fff"/><path d="M41.05,63c0,.3-.2.48-.5.48H33.06A3,3,0,0,0,36,65.05a3.88,3.88,0,0,0,2.45-.8.43.43,0,0,1,.7.15l1.07,1.95a.49.49,0,0,1-.12.7,7.28,7.28,0,0,1-4.54,1.29,6.1,6.1,0,0,1-6.42-6,5.89,5.89,0,0,1,6.09-6,5.73,5.73,0,0,1,5.89,6.09A3.54,3.54,0,0,1,41.05,63Zm-8-1.89h4.3l0-.1a2,2,0,0,0-2-1.48A2.18,2.18,0,0,0,33,61.06Z" transform="translate(-17.1 -15.12)" fill="#fff"/><path d="M55.42,61.78v5.84a.45.45,0,0,1-.5.5H52a.45.45,0,0,1-.5-.5V62.35A2.13,2.13,0,0,0,49.41,60a2.17,2.17,0,0,0-2.2,2.39v5.27a.45.45,0,0,1-.5.5H43.77a.45.45,0,0,1-.5-.5V57.14a.44.44,0,0,1,.5-.5h1.77a.46.46,0,0,1,.5.47l.12,1.4a4.57,4.57,0,0,1,4.2-2.1C53.48,56.41,55.42,58.48,55.42,61.78Z" transform="translate(-17.1 -15.12)" fill="#fff"/><path d="M59.19,63.65V60H57.37a.45.45,0,0,1-.5-.5V57.14a.45.45,0,0,1,.5-.5h2V53.19a.45.45,0,0,1,.5-.5h2.82a.45.45,0,0,1,.5.5v3.45h3.51a.44.44,0,0,1,.5.5v2.32a.45.45,0,0,1-.5.5H63.14v3.22c0,1.19.82,1.59,1.77,1.59a3.53,3.53,0,0,0,1.27-.27.43.43,0,0,1,.67.22l.93,2c.12.3,0,.5-.25.72a6.47,6.47,0,0,1-3.57.87C60.94,68.34,59.19,66.67,59.19,63.65Z" transform="translate(-17.1 -15.12)" fill="#fff"/><path d="M77.59,57l-.23,2.87c0,.35-.25.47-.57.4a2.53,2.53,0,0,0-.68-.08,2.39,2.39,0,0,0-2.67,2.45v5a.45.45,0,0,1-.5.5H70a.45.45,0,0,1-.5-.5V57.14a.44.44,0,0,1,.5-.5h2.27a.46.46,0,0,1,.5.47l.12,1.65a3.62,3.62,0,0,1,3.7-2.35,3.44,3.44,0,0,1,.57,0C77.49,56.46,77.61,56.69,77.59,57Z" transform="translate(-17.1 -15.12)" fill="#fff"/><path d="M91.16,57.14V67.62a.45.45,0,0,1-.49.5H88.14a.47.47,0,0,1-.52-.48l-.1-.87a4.54,4.54,0,0,1-3.44,1.57c-3.2,0-5.5-2.57-5.5-6a5.69,5.69,0,0,1,5.62-6,5.18,5.18,0,0,1,3.15,1.05l.07-.37a.48.48,0,0,1,.52-.45h2.73A.44.44,0,0,1,91.16,57.14ZM87.4,62.38A2.3,2.3,0,0,0,85,60a2.4,2.4,0,1,0,0,4.79A2.29,2.29,0,0,0,87.4,62.38Z" transform="translate(-17.1 -15.12)" fill="#fff"/><path d="M94,67.62V50.8a.44.44,0,0,1,.5-.5H97.4a.44.44,0,0,1,.5.5V67.62a.45.45,0,0,1-.5.5H94.46A.45.45,0,0,1,94,67.62Z" transform="translate(-17.1 -15.12)" fill="#fff"/><path d="M29.91,78.31v5.84a.44.44,0,0,1-.49.5h-3a.45.45,0,0,1-.5-.5V78.89a2.13,2.13,0,0,0-2.07-2.4,2.17,2.17,0,0,0-2.2,2.4v5.26a.44.44,0,0,1-.5.5H18.26a.44.44,0,0,1-.5-.5V73.67a.45.45,0,0,1,.5-.5H20a.47.47,0,0,1,.5.48L20.65,75A4.57,4.57,0,0,1,24.85,73C28,73,29.91,75,29.91,78.31Z" transform="translate(-17.1 -15.12)" fill="#fff"/><path d="M32,78.91a6.06,6.06,0,0,1,6.31-6,6,6,0,1,1,0,11.93A6.06,6.06,0,0,1,32,78.91Zm8.63,0a2.34,2.34,0,1,0-2.32,2.4A2.31,2.31,0,0,0,40.62,78.91Z" transform="translate(-17.1 -15.12)" fill="#fff"/><path d="M55.46,73.52l-.23,2.87c0,.35-.25.47-.57.4a2.58,2.58,0,0,0-.68-.07c-1.54,0-3.22.84-3.22,2.44v5a.45.45,0,0,1-.5.5H47.31a.45.45,0,0,1-.5-.5V73.67a.45.45,0,0,1,.5-.5h2.27a.47.47,0,0,1,.5.48l.13,1.64c.37-1.37,2.38-2.34,4.25-2.34A5.15,5.15,0,0,1,55,73,.45.45,0,0,1,55.46,73.52Z" transform="translate(-17.1 -15.12)" fill="#fff"/><path d="M59.13,80.18V76.49H57.31a.45.45,0,0,1-.5-.5V73.67a.45.45,0,0,1,.5-.5h1.95V69.73a.44.44,0,0,1,.5-.5h2.82a.45.45,0,0,1,.5.5v3.44H66.6a.45.45,0,0,1,.49.5V76a.44.44,0,0,1-.49.5H63.08v3.22c0,1.2.82,1.6,1.77,1.6A3.32,3.32,0,0,0,66.12,81a.45.45,0,0,1,.68.23l.92,2c.12.3,0,.5-.25.72a6.35,6.35,0,0,1-3.57.88C60.88,84.88,59.13,83.2,59.13,80.18Z" transform="translate(-17.1 -15.12)" fill="#fff"/><path d="M80.67,79.49c0,.3-.2.47-.5.47H72.69a3,3,0,0,0,2.89,1.62,3.93,3.93,0,0,0,2.45-.8.43.43,0,0,1,.7.15l1.07,1.95a.5.5,0,0,1-.13.7,7.24,7.24,0,0,1-4.54,1.3,6.09,6.09,0,0,1-6.41-6,5.88,5.88,0,0,1,6.09-6c3.62,0,5.89,2.64,5.89,6.09A2.43,2.43,0,0,1,80.67,79.49Zm-8-1.9H77l0-.1A2,2,0,0,0,75,76,2.17,2.17,0,0,0,72.66,77.59Z" transform="translate(-17.1 -15.12)" fill="#fff"/><path d="M37.51,35.44l4.65,6.66a24.81,24.81,0,0,1-5.48,3.44,14.54,14.54,0,0,1-6.19.71A14.87,14.87,0,0,1,22.6,19.91l1.48-1.2L27,16.4a5.72,5.72,0,0,1,7.37.14c.86.75,6.91,9.53,6.91,9.53l-.14.12-.08.06a5.92,5.92,0,0,1-3.85,1.39h-.07A5.92,5.92,0,0,1,32.28,25a5.84,5.84,0,0,1-.75-1.62l-2.9,2.35-.83.63a6.62,6.62,0,0,0-.93,9.34,6.83,6.83,0,0,0,9.45.92Z" transform="translate(-17.1 -15.12)" fill="#fff"/><path d="M58.1,30.59a12.29,12.29,0,0,1-4.53,8.31l-1.17,1L50,41.91A4.66,4.66,0,0,1,44,41.85c-.74-.62-5.44-7.21-5.44-7.21l.17-.14a4.79,4.79,0,0,1,3-1,3.27,3.27,0,0,1,.54,0,4.78,4.78,0,0,1,3.22,1.8c.38.47.28.35.78,1l2.1-1.89.4-.32.55-.45a5.45,5.45,0,0,0,1.28-7l-.12-.19c-.09-.13-.18-.26-.28-.38a1.64,1.64,0,0,0-.21-.24l-.21-.23-.22-.21a2.39,2.39,0,0,0-.26-.21L49.12,25a2.92,2.92,0,0,0-.37-.24l-.33-.17-.05,0a5.38,5.38,0,0,0-5.74.67l-.1.08-3.84-5.51a10.13,10.13,0,0,1,3.07-1.72,11.84,11.84,0,0,1,5.6-.72A12.12,12.12,0,0,1,58.1,30.59Z" transform="translate(-17.1 -15.12)" fill="#fff"/></svg>