<svg xmlns="http://www.w3.org/2000/svg" viewBox="0 0 73.71 91"><path d="M70.58,61,84.36,80.42c-4,3.11-11.33,8.58-16,10.19a43.43,43.43,0,0,1-48-13.76,43.67,43.67,0,0,1-9.51-31.76C12,33.51,17.63,21.18,25.8,14.21c0,0,4.43-3.87,5.82-5s4.82-3.4,4.82-3.4C43.75,1,55.12.54,61,5.57c2.55,2.18,20.43,27.86,20.43,27.86l-.4.33-.22.18a17.29,17.29,0,0,1-11.27,4.15H69.3A17.37,17.37,0,0,1,52.84,25.61l-8.46,6.94L42,34.41A19.4,19.4,0,0,0,39.4,61.84a20,20,0,0,0,27.71,2.5Z" transform="translate(-10.64 -2)" fill="#355098"/></svg>