<svg xmlns="http://www.w3.org/2000/svg" viewBox="0 0 69.44 91.22"><path d="M82,48.94a43.58,43.58,0,0,1-15.9,29.62L62,82l-8.63,7.36a16.54,16.54,0,0,1-21.12-.06C29.6,87.08,12.78,63.75,12.78,63.75l.58-.5A17.16,17.16,0,0,1,24.1,59.49a13.85,13.85,0,0,1,1.94.12A17,17,0,0,1,37.51,66c1.34,1.67,1,1.23,2.78,3.49l7.42-6.74,1.43-1.17,1.94-1.6A19.37,19.37,0,0,0,55.48,35l-.45-.7A16,16,0,0,0,54,33c-.23-.3-.48-.59-.73-.86s-.51-.54-.77-.8-.52-.5-.79-.74-.61-.51-.92-.75-.53-.41-.81-.6c-.43-.29-.87-.58-1.33-.84s-.77-.41-1.17-.6l-.19-.11A19.19,19.19,0,0,0,27,30.19l-.36.28L12.85,11A35.92,35.92,0,0,1,23.71,4.8,43,43,0,0,1,82,48.94" transform="translate(-12.78 -1.89)" fill="#355098"/></svg>