<svg xmlns="http://www.w3.org/2000/svg" viewBox="0 0 86.62 76.14"><path d="M76.82,21.27A43.61,43.61,0,0,1,90.25,52.09l.11,5.36.45,11.33A16.57,16.57,0,0,1,77.69,85.34c-3.36.72-32.09-.5-32.09-.5l0-.77A17.16,17.16,0,0,1,49.26,73.3a13.65,13.65,0,0,1,1.29-1.44,17,17,0,0,1,12.08-5.09c2.14,0,1.6,0,4.46,0l-.7-10,0-1.85,0-2.51A19.38,19.38,0,0,0,49.45,33.51l-.83-.08c-.54,0-1.11-.06-1.67,0-.37,0-.75,0-1.12,0l-1.11.11c-.35,0-.71.1-1.07.17s-.77.16-1.16.25-.64.17-1,.27c-.5.16-1,.33-1.49.52s-.8.35-1.2.55l-.2.08A19.19,19.19,0,0,0,28,52.92v.46L4.19,52.13A36,36,0,0,1,6.05,39.77a43,43,0,0,1,70.77-18.5" transform="translate(-4.19 -9.43)" fill="#355098"/></svg>