<svg xmlns="http://www.w3.org/2000/svg" viewBox="0 0 102.78 91"><path d="M64.44,81.34c-3.68,2.89-10.51,8-14.85,9.45A40.29,40.29,0,0,1,5.13,78,40.48,40.48,0,0,1-3.69,48.61C-2.63,37.87,2.58,26.43,10.15,20c0,0,4.11-3.57,5.41-4.6.85-.68,2.83-2,3.85-2.73L33.68,31.88,27.38,37,25.13,38.7a18,18,0,0,0-2.37,25.42,18.56,18.56,0,0,0,25.69,2.33l3.22-3.14Z" transform="translate(3.89 -2)" fill="#355098"/><path d="M98.75,38A33.44,33.44,0,0,1,86.57,60.67L83.4,63.28l-6.53,5.58L66.15,53.41l6.33-4.88,1.09-.89,1.49-1.22a14.83,14.83,0,0,0,3.36-19.07c-.12-.18-.22-.35-.34-.54s-.49-.69-.76-1-.37-.44-.56-.66-.38-.4-.59-.61-.39-.38-.61-.57-.46-.38-.69-.57l-.63-.45c-.33-.23-.66-.45-1-.65s-.59-.32-.9-.46l-.14-.08a14.67,14.67,0,0,0-15.58,1.91l-.27.22L45.8,9a27.6,27.6,0,0,1,8.31-4.73A32.94,32.94,0,0,1,98.75,38" transform="translate(3.89 -2)" fill="#355098"/></svg>