<?xml version="1.0" encoding="UTF-8"?><svg id="a" xmlns="http://www.w3.org/2000/svg" viewBox="0 0 75.68 80.96"><path d="m75.68,43.12c0-3.56-2.5-6.53-5.83-7.29-2.33-10.17-9.44-18.79-19.25-22.93,0-.05,0-.09,0-.14,0-7.04-5.73-12.77-12.77-12.77s-12.77,5.73-12.77,12.77c0,.05,0,.09,0,.14-9.81,4.14-16.92,12.76-19.25,22.93-3.33.76-5.83,3.72-5.83,7.29s2.5,6.54,5.84,7.29c2.79,12.26,12.45,21.92,24.71,24.71.75,3.34,3.72,5.84,7.29,5.84s6.54-2.5,7.29-5.84c12.26-2.79,21.92-12.45,24.71-24.71,3.34-.75,5.84-3.72,5.84-7.29ZM37.84,4.98c4.29,0,7.79,3.49,7.79,7.79,0,.48-.06.95-.14,1.4-.05.27-.13.51-.2.77-.07.22-.12.45-.21.66-.08.2-.18.4-.28.59-.12.25-.25.5-.4.73-.1.15-.2.3-.31.44-.18.25-.38.49-.59.72-.11.12-.22.23-.34.34-.24.22-.49.43-.75.62-.13.09-.25.18-.38.27-.28.18-.57.33-.86.47-.14.07-.28.14-.42.2-.32.13-.65.22-.99.31-.14.04-.28.09-.42.12-.48.09-.98.15-1.49.15s-1.01-.06-1.49-.15c-.15-.03-.28-.08-.43-.12-.33-.09-.66-.18-.98-.31-.15-.06-.29-.14-.44-.2-.29-.14-.58-.29-.85-.46-.13-.09-.26-.18-.39-.28-.26-.19-.5-.39-.74-.61-.12-.11-.24-.23-.35-.35-.21-.22-.4-.46-.58-.7-.11-.15-.22-.3-.32-.46-.15-.23-.27-.47-.39-.72-.1-.2-.2-.39-.28-.6-.08-.21-.14-.44-.2-.66-.07-.26-.16-.51-.21-.78-.08-.46-.14-.92-.14-1.4,0-4.29,3.49-7.79,7.79-7.79Zm6.67,65.16c-1.23-2.45-3.74-4.15-6.67-4.15s-5.44,1.7-6.67,4.15c-10.01-2.47-17.88-10.35-20.35-20.35,2.45-1.23,4.15-3.74,4.15-6.67s-1.7-5.44-4.16-6.67c2.02-8.11,7.61-15.01,15.33-18.59.01.03.03.06.05.09.2.45.43.88.68,1.3.08.14.17.29.26.43.27.41.55.82.87,1.2.12.15.26.28.39.42.22.25.45.48.69.71.17.16.34.32.51.47.32.27.65.52.99.76.19.13.39.25.58.37.31.19.62.37.94.53.18.09.35.18.54.26.46.21.94.4,1.43.55.08.02.16.04.24.06.45.13.92.23,1.4.32.15.02.3.05.45.07.55.07,1.12.12,1.69.12s1.14-.05,1.69-.12c.15-.02.3-.04.46-.07.47-.08.94-.18,1.39-.31.08-.02.17-.04.25-.06.49-.15.96-.34,1.42-.55.19-.08.37-.17.55-.27.31-.16.62-.33.91-.51.22-.13.43-.27.64-.41.32-.23.64-.47.94-.72.18-.15.36-.32.53-.48.23-.22.45-.45.67-.69.13-.15.28-.29.4-.44.31-.38.59-.78.86-1.19.09-.14.18-.29.27-.44.25-.42.48-.85.68-1.3.01-.03.03-.06.05-.09,7.72,3.57,13.31,10.48,15.33,18.59-2.46,1.23-4.16,3.74-4.16,6.67s1.7,5.44,4.15,6.67c-2.47,10.01-10.35,17.88-20.36,20.35Z" fill="#00af9e"/></svg>