<?xml version="1.0" encoding="UTF-8"?><svg id="a" xmlns="http://www.w3.org/2000/svg" viewBox="0 0 73.07 54.43"><path d="m33.24.67c15.26-1.43,29.73,7.75,37.09,20.83,3.84,6.83,2.36,8.13-1.89,14.37-17.24,25.33-50.76,23.61-65.64-2.85-3.79-6.74-2.54-7.72,1.57-13.9C10.91,9.29,21.22,1.79,33.24.67Zm2.4,7.05c-9.42.28-17.85,5.65-23.51,12.85-4.72,6.01-4.71,7.38,0,13.37,13.35,16.98,35.5,17.01,48.87,0,4.72-6.01,4.71-7.38,0-13.37-6.1-7.76-15.24-13.15-25.36-12.85Z" fill="#00af9e" stroke="#fff" stroke-miterlimit="10" stroke-width="1.05"/><path d="m50.01,27.26c0,7.43-6.02,13.44-13.44,13.44s-13.45-6.02-13.45-13.44,6.02-13.45,13.45-13.45,13.44,6.02,13.44,13.45Zm-7.11-.05c0-3.51-2.84-6.35-6.35-6.35s-6.35,2.84-6.35,6.35,2.84,6.35,6.35,6.35,6.35-2.84,6.35-6.35Z" fill="#00af9e" stroke="#fff" stroke-miterlimit="10" stroke-width="1.05"/></svg>