<?xml version="1.0" encoding="UTF-8"?><svg id="a" xmlns="http://www.w3.org/2000/svg" viewBox="0 0 70.85 67.52"><path d="m66.63.83v26.35c0,.66,5.42,3.35,2.8,9.72-.48,1.18-2.8,3.03-2.8,3.24v26.35c-8.52,1.3-8.48-1.39-11.88-7.78l-31.32-10.37v18.15h-7.78v-18.15c-4.95.23-12.48.83-14.3-5.14-.8-2.6-.8-14.77-.34-17.71,1.54-9.78,16.14-5.62,23.32-6.92,3.98-.72,27.18-8.23,30.42-9.98,1.7-.91,2.43-6.87,4.67-7.64,1.95-.67,5.05.14,7.21-.14Zm-7.78,14.69l-27.66,9.06c-1.74,1.45-.78,14.69-.45,17.76l28.12,9.47V15.52ZM8.74,40.58h13.82v-13.82h-13.82v13.82Z" fill="#00af9e" stroke="#fff" stroke-miterlimit="10" stroke-width="1.4"/></svg>