<?xml version="1.0" encoding="UTF-8"?><svg id="a" xmlns="http://www.w3.org/2000/svg" viewBox="0 0 78.46 56.47"><path d="m26.29,10.23c7.21-1.24,8.78,3.01,12.03,3.33,1.73.17,4.42-2.59,6.77-3.14,11.34-2.68,19.1,8.62,12.95,18.54-1.17,1.89-16.97,17.84-18.21,18.19-1.66.47-2.24.04-3.57-.75-1.58-.94-14.26-13.85-15.81-15.86-5.56-7.23-4.05-18.59,5.84-20.3Zm.92,6.47c-1.12.32-2.95,2.17-3.28,3.3-1.93,6.49,10.61,14.01,14.38,18.83,1.03.18,14.65-13.23,15.06-14.57,1.51-4.96-2.26-8.95-7.32-7.32-3.08.99-4.59,5.54-7.82,5.23-3.17-.31-5.15-7.15-11.01-5.47Z" fill="#00af9e"/><path d="m66.81,56.47H11.65c-6.42,0-11.65-5.41-11.65-12.05V12.05C0,5.41,5.23,0,11.65,0h55.16c6.42,0,11.65,5.41,11.65,12.05v32.36c0,6.65-5.23,12.05-11.65,12.05ZM11.65,4.98c-3.77,0-6.84,3.17-6.84,7.07v32.36c0,3.9,3.07,7.07,6.84,7.07h55.16c3.77,0,6.84-3.18,6.84-7.07V12.05c0-3.9-3.07-7.07-6.84-7.07H11.65Z" fill="#00af9e"/></svg>