<svg xmlns="http://www.w3.org/2000/svg" viewBox="0 0 66.66 66.62"><path d="M28.87,2.28c26.27-4.94,47.44,21.91,36.52,46.4C54.76,72.51,21.64,75.26,7.26,53.56A33.41,33.41,0,0,1,28.87,2.28ZM26.26,4.87C8.7,9.53-.56,29.15,5.54,46c8.23,22.65,38.76,27.75,53.89,8.8C78.53,30.85,56.1-3,26.26,4.87Z" transform="translate(-1.67 -1.69)" fill="#fff"/><path d="M17.94,40.54c0-.51.86-.77,1.35-.54.65.31,1.09,3,1.46,4C27.1,60,52,55.42,51.41,36.83c0-.76-.82-3.43,1-2.87.9.28.93,3.51.92,4.39C53.19,52.88,35.54,61,24.27,51.78c-1.91-1.55-5.37-5.88-5.8-8.26A22.17,22.17,0,0,1,17.94,40.54Z" transform="translate(-1.67 -1.69)" fill="#fff"/><path d="M22.44,19.93c3.81-.9,6,6.82,3,9.27-2.4,2-4.82-1.47-5.25-3.64C19.86,23.75,20.28,20.44,22.44,19.93Z" transform="translate(-1.67 -1.69)" fill="#fff"/><path d="M40.83,16.62c1.35-.41,3,.91,3.57,2,1.19,2.16,1.51,7.24-1.67,7.79C38.67,27.13,36.73,17.84,40.83,16.62Z" transform="translate(-1.67 -1.69)" fill="#fff"/></svg>